<svg width="56" height="24" viewBox="0 0 56 24" fill="none" xmlns="http://www.w3.org/2000/svg">
<rect x="0.5" y="0.5" width="55" height="23" rx="1.5" fill="white" stroke="#E4E4E4"/>
<mask id="mask0_4324_5672" style="mask-type:luminance" maskUnits="userSpaceOnUse" x="6" y="6" width="44" height="11">
<path d="M6 6H49.0003V17H6V6Z" fill="white"/>
</mask>
<g mask="url(#mask0_4324_5672)">
<path fill-rule="evenodd" clip-rule="evenodd" d="M19.699 8.46H22.0785C22.8749 8.46 23.4746 8.68 23.813 9.09646C24.121 9.47552 24.2228 10.0167 24.1163 10.7058C23.8801 12.2803 22.9754 13.0749 21.4081 13.0749H20.6546C20.4923 13.0749 20.3532 13.1988 20.3284 13.3675L20.0688 15.0917C20.0433 15.2604 19.9049 15.3843 19.7421 15.3843H18.606C18.4839 15.3843 18.3906 15.2708 18.4098 15.1445L19.3723 8.75238C19.3976 8.58386 19.5362 8.45978 19.699 8.45978V8.46ZM20.9384 11.6892C21.5692 11.6892 22.2217 11.6892 22.3517 10.7946C22.3995 10.4805 22.3612 10.253 22.2362 10.0999C22.0268 9.84336 21.6215 9.84336 21.1917 9.84336H21.0271C20.9299 9.84336 20.8463 9.91772 20.8313 10.0187L20.5794 11.6892H20.9384ZM28.0517 10.766H29.1911C29.313 10.766 29.4058 10.88 29.3862 11.0058L28.7704 15.0915C28.7447 15.2602 28.607 15.3841 28.4437 15.3841H27.4174C27.296 15.3841 27.2027 15.2705 27.2216 15.1436L27.2727 14.8121C27.2727 14.8121 26.7099 15.4954 25.6953 15.4954C25.1044 15.4954 24.6074 15.3167 24.2602 14.8882C23.8816 14.4218 23.7267 13.7534 23.8356 13.0543C24.0451 11.6529 25.1204 10.6536 26.3797 10.6536C26.9288 10.6536 27.4788 10.779 27.7257 11.1541L27.8053 11.2751L27.8559 10.9414C27.862 10.8935 27.8852 10.8494 27.9211 10.8172C27.9571 10.785 28.0034 10.7669 28.0517 10.766ZM26.3172 14.2288C26.9763 14.2288 27.4929 13.7712 27.6029 13.0892C27.6526 12.759 27.5838 12.4594 27.4102 12.2447C27.2368 12.0321 26.9737 11.9195 26.6503 11.9195C26.0013 11.9195 25.4759 12.3925 25.3734 13.0686C25.3197 13.4001 25.3838 13.6978 25.5521 13.9072C25.7219 14.118 25.9863 14.2288 26.3172 14.2288Z" fill="#253B80"/>
<path d="M35.2598 10.7659H34.1149C34.0056 10.7659 33.9031 10.8228 33.841 10.9177L32.2616 13.355L31.5924 11.0129C31.5502 10.8664 31.421 10.7659 31.2749 10.7659H30.1499C30.013 10.7659 29.918 10.9058 29.9615 11.0409L31.2228 14.9184L30.037 16.6718C29.9437 16.8101 30.0377 17 30.1989 17H31.3425C31.4509 17 31.5526 16.9446 31.6142 16.8513L35.4228 11.0921C35.5139 10.9544 35.4204 10.7659 35.2598 10.7659Z" fill="#253B80"/>
<path fill-rule="evenodd" clip-rule="evenodd" d="M36.6713 8.46H39.0513C39.8477 8.46 40.4472 8.68 40.7849 9.09646C41.0929 9.47552 41.1956 10.0167 41.0887 10.7058C40.8522 12.2803 39.9478 13.0749 38.3801 13.0749H37.627C37.4646 13.0749 37.3258 13.1988 37.3007 13.3675L37.0275 15.1797C37.0099 15.2978 36.9129 15.3843 36.7994 15.3843H35.5781C35.4567 15.3843 35.3634 15.2708 35.3826 15.1445L36.3451 8.75238C36.3704 8.58386 36.5087 8.45978 36.6713 8.45978V8.46ZM37.9126 11.6892C38.5437 11.6892 39.1963 11.6892 39.3261 10.7946C39.3736 10.4805 39.3357 10.253 39.2108 10.0999C39.0013 9.84336 38.5957 9.84336 38.1662 9.84336H38.0017C37.904 9.84336 37.821 9.91772 37.8061 10.0187L37.554 11.6892H37.9126ZM45.0243 10.7658H46.163C46.2851 10.7658 46.3784 10.8802 46.3597 11.0056L45.7435 15.0915C45.7179 15.2602 45.5796 15.3841 45.417 15.3841H44.3909C44.2688 15.3841 44.1755 15.2705 44.1947 15.1436L44.2455 14.8118C44.2455 14.8118 43.6829 15.4954 42.6683 15.4954C42.0772 15.4954 41.5811 15.3167 41.233 14.8882C40.8546 14.4218 40.7004 13.7534 40.8089 13.0543C41.0185 11.6529 42.0937 10.6536 43.3527 10.6536C43.9018 10.6536 44.4516 10.779 44.6982 11.1541L44.7783 11.2751L44.8287 10.9412C44.8347 10.8933 44.8578 10.8491 44.8937 10.8169C44.9297 10.7847 44.976 10.7666 45.0243 10.7658ZM43.2905 14.2291C43.9494 14.2291 44.4668 13.7712 44.5761 13.0892C44.6265 12.759 44.5577 12.4594 44.3832 12.2444C44.2101 12.0321 43.9469 11.9195 43.6233 11.9195C42.9745 11.9195 42.4498 12.3923 42.3464 13.0683C42.2936 13.4001 42.357 13.698 42.5253 13.9072C42.6951 14.1177 42.9602 14.2291 43.2905 14.2291Z" fill="#179BD7"/>
<path d="M47.5074 8.63537L46.5306 15.1447C46.5114 15.2708 46.6047 15.3845 46.7262 15.3845H47.708C47.8713 15.3845 48.0096 15.2607 48.0347 15.0919L48.9979 8.69983C49.017 8.57377 48.9237 8.45959 48.8023 8.45959H47.7027C47.6057 8.46003 47.5223 8.53439 47.5074 8.63537Z" fill="#179BD7"/>
<path d="M8.52846 16.6269L8.7104 15.416L8.30516 15.4061H6.3696L7.71468 6.47103C7.71881 6.44413 7.73201 6.41945 7.75208 6.40107C7.77178 6.38321 7.79743 6.37332 7.82402 6.37335H11.0875C12.171 6.37335 12.9188 6.60941 13.3091 7.07581C13.4921 7.29449 13.6087 7.52285 13.665 7.77453C13.7244 8.03853 13.7253 8.35357 13.6674 8.73813L13.6633 8.76629V9.01269L13.8463 9.12137C14.0003 9.20717 14.1231 9.30507 14.217 9.41727C14.3734 9.60427 14.4748 9.84187 14.5175 10.1237C14.5615 10.4134 14.547 10.7584 14.4748 11.1489C14.3912 11.5977 14.2562 11.9889 14.074 12.309C13.9061 12.6038 13.6925 12.8484 13.4389 13.038C13.1969 13.218 12.9091 13.3548 12.5837 13.4422C12.2685 13.5282 11.909 13.5715 11.5147 13.5715H11.2609C11.0791 13.5715 10.9027 13.6402 10.7643 13.7629C10.6247 13.8895 10.5332 14.0605 10.5054 14.2469L10.4862 14.3561L10.165 16.4901L10.1503 16.5686C10.1463 16.5932 10.1397 16.6058 10.1301 16.6141C10.1208 16.6222 10.1089 16.6267 10.0966 16.6269H8.52846Z" fill="#253B80"/>
<path d="M14.0192 8.79468C14.0095 8.86002 13.9983 8.92668 13.9858 8.9951C13.5555 11.3102 12.0828 12.1099 10.2024 12.1099H9.24478C9.01488 12.1099 8.82106 12.2848 8.7852 12.5226L8.29504 15.7797L8.156 16.703C8.13268 16.859 8.24752 16.9998 8.39778 16.9998H10.0962C10.297 16.9998 10.468 16.8467 10.4997 16.639L10.5164 16.5484L10.836 14.4227L10.8567 14.3061C10.888 14.0976 11.0591 13.9444 11.2602 13.9444H11.5143C13.1597 13.9444 14.4478 13.2446 14.8242 11.2193C14.9815 10.3734 14.9001 9.66698 14.4839 9.17022C14.358 9.0204 14.2018 8.8961 14.0192 8.79468Z" fill="#179BD7"/>
<path d="M13.568 8.60634C13.4308 8.56478 13.291 8.53229 13.1496 8.5091C12.8915 8.46532 12.6086 8.44464 12.3056 8.44464H9.74749C9.68457 8.44464 9.62473 8.4596 9.57105 8.48644C9.45313 8.54584 9.36557 8.66288 9.34445 8.8061L8.79995 12.417L8.78455 12.5223C8.82019 12.2847 9.01401 12.1096 9.24413 12.1096H10.2016C12.0821 12.1096 13.5546 11.3095 13.9849 8.99486C13.9979 8.92644 14.0087 8.85978 14.0183 8.79466C13.9052 8.73234 13.7868 8.67993 13.6646 8.63802C13.6326 8.62697 13.6003 8.61641 13.568 8.60634Z" fill="#222D65"/>
<path d="M9.3449 8.80632C9.35431 8.73881 9.37983 8.67456 9.41931 8.619C9.45879 8.56344 9.51107 8.5182 9.57172 8.4871C9.62562 8.46004 9.68524 8.4453 9.74816 8.4453H12.3061C12.6093 8.4453 12.892 8.46598 13.1502 8.50954C13.3252 8.53844 13.4975 8.58148 13.6655 8.63824C13.7926 8.68224 13.9106 8.7346 14.0195 8.79466C14.1475 7.93908 14.0184 7.35674 13.5768 6.82918C13.09 6.2486 12.2115 6 11.0873 6H7.8236C7.59414 6 7.39812 6.1749 7.3627 6.41294L6.0031 15.4402C5.97648 15.6188 6.10804 15.7799 6.27986 15.7799H8.29484L8.80084 12.4174L9.3449 8.80654V8.80632Z" fill="#253B80"/>
</g>
</svg>
