<svg width="48" height="48" viewBox="0 0 48 48" fill="none" xmlns="http://www.w3.org/2000/svg">
<path fill-rule="evenodd" clip-rule="evenodd" d="M17.5758 8.62801L20.7158 11.1554L21.166 10.596L18.026 8.0688L17.5758 8.62801ZM20.7157 11.1547C20.8701 11.2789 21.096 11.2546 21.2204 11.1002C21.3445 10.9455 21.3203 10.7197 21.1658 10.5953L20.7157 11.1547ZM18.0266 8.06839C17.8721 7.94402 17.646 7.96849 17.5219 8.12292C17.3975 8.27735 17.422 8.50345 17.5764 8.6276L18.0266 8.06839Z" fill="#F27E49"/>
<path fill-rule="evenodd" clip-rule="evenodd" d="M26.4347 11.4116L29.0577 8.27153L28.5066 7.81111L25.8837 10.9512L26.4347 11.4116ZM29.0569 8.27165C29.184 8.11946 29.1638 7.89317 29.0115 7.76608C28.8593 7.6388 28.633 7.65926 28.5057 7.81123L29.0569 8.27165ZM25.8829 10.951C25.7559 11.1032 25.7761 11.3295 25.9283 11.4566C26.0805 11.5838 26.3068 11.5634 26.4339 11.4114L25.8829 10.951Z" fill="#F27E49"/>
<path fill-rule="evenodd" clip-rule="evenodd" d="M24.0483 12.4205L23.4261 5.86289L22.7114 5.93077L23.3336 12.4883L24.0483 12.4205ZM23.4255 5.86291C23.4068 5.66575 23.2315 5.5209 23.0341 5.53959C22.8367 5.5583 22.6921 5.7334 22.7108 5.93079L23.4255 5.86291ZM23.3332 12.4889C23.3519 12.6863 23.527 12.8311 23.7244 12.8124C23.9218 12.7935 24.0666 12.6184 24.048 12.421L23.3332 12.4889Z" fill="#F27E49"/>
<path fill-rule="evenodd" clip-rule="evenodd" d="M20.3289 22.267C20.861 20.0832 20.8247 17.799 20.2237 15.633C19.2664 11.8037 15.0351 11.5265 15.4372 16.4563C15.8393 21.3863 13.197 27.9439 13.197 27.9439C12.8207 28.7739 12.7072 29.6991 12.8714 30.5955C13.0288 31.4954 13.46 32.3245 14.1065 32.9696L16.5476 35.4109L19.5056 38.3593C19.9324 38.8309 20.464 39.1954 21.0577 39.4232C21.6516 39.6511 22.2907 39.7359 22.9233 39.6712C27.8438 38.8858 32.1325 34.1474 33.396 32.8835C34.6597 31.62 36.1052 28.6522 33.3099 27.58C34.3437 26.4027 35.5978 24.2199 32.1134 23.1096C32.8312 22.3914 33.9512 19.6248 30.6583 18.6773C31.893 17.3468 33.0515 16.1211 33.5302 15.6043C33.8155 15.3641 34.0467 15.066 34.2082 14.7297C34.3697 14.3935 34.4579 14.0268 34.467 13.6538C34.4759 13.2809 34.4056 12.9103 34.2607 12.5666C34.1156 12.223 33.8994 11.9139 33.6259 11.6602C32.4483 10.6264 30.9071 11.6602 29.6147 12.9909L20.3289 22.267Z" fill="white"/>
<path fill-rule="evenodd" clip-rule="evenodd" d="M33.6688 33.1085C34.3366 32.4407 35.065 31.3183 35.253 30.19C35.348 29.6191 35.3082 29.0236 35.0249 28.4869C34.7394 27.9463 34.2296 27.5086 33.467 27.216L33.2098 27.8865C33.8449 28.1299 34.2015 28.4653 34.3898 28.8222C34.5805 29.1829 34.6219 29.6093 34.5447 30.0721C34.388 31.0116 33.7569 32.005 33.161 32.6009L33.6688 33.1085ZM25.1962 39.4029C29.2759 37.8472 32.6185 34.1595 33.6697 33.1083L33.1619 32.6008C32.0686 33.694 28.8443 37.2433 24.9403 38.732L25.1962 39.4029ZM33.467 27.2161C33.2818 27.1451 33.0742 27.2377 33.0033 27.4228C32.9323 27.6077 33.0249 27.8154 33.2097 27.8866L33.467 27.2161ZM24.9394 38.7319C24.754 38.8024 24.6612 39.01 24.7318 39.1952C24.8025 39.3805 25.0099 39.4733 25.1953 39.4028L24.9394 38.7319Z" fill="#593A26"/>
<path fill-rule="evenodd" clip-rule="evenodd" d="M16.294 35.6654L19.2425 38.6139L19.7503 38.1063L16.8016 35.1578L16.294 35.6654ZM13.8543 33.2242L16.2954 35.6653L16.803 35.1577L14.3619 32.7167L13.8543 33.2242ZM12.5118 30.6635C12.6874 31.6341 13.156 32.5276 13.8547 33.2241L14.3614 32.7156C13.7668 32.1228 13.3678 31.362 13.2183 30.5355L12.5118 30.6635ZM12.8708 27.7949C12.4607 28.6919 12.3347 29.6931 12.5106 30.6637L13.217 30.5358C13.0675 29.7096 13.1746 28.8573 13.5239 28.0936L12.8708 27.7949ZM15.0715 16.4864C15.272 18.8879 14.7277 21.7108 14.1217 23.9554C13.8198 25.0731 13.5052 26.0387 13.2661 26.7243C13.1466 27.0669 13.0461 27.3393 12.9755 27.5258C12.9404 27.6188 12.9125 27.6905 12.8938 27.7385C12.8845 27.7626 12.8774 27.7806 12.8725 27.7926L12.8672 27.8059L12.866 27.8091L12.8656 27.8097V27.81L13.1987 27.9441C13.5316 28.0783 13.5316 28.0781 13.5316 28.0781L13.5318 28.0777L13.5323 28.0765L13.5338 28.0726L13.5398 28.0576C13.545 28.0445 13.5528 28.0251 13.5625 28C13.5823 27.9495 13.6108 27.8754 13.6471 27.7797C13.7196 27.5881 13.8222 27.3097 13.944 26.9606C14.1873 26.2627 14.5076 25.2805 14.8149 24.1428C15.4269 21.8759 15.9981 18.9553 15.7869 16.4265L15.0715 16.4864ZM20.5633 15.5459C20.0612 13.5376 18.654 12.3189 17.2868 12.4014C16.593 12.4435 15.9681 12.826 15.5583 13.5283C15.1542 14.2201 14.9641 15.2086 15.0709 16.4861L15.7863 16.4262C15.6871 15.2388 15.8728 14.413 16.1782 13.8901C16.4775 13.3774 16.8956 13.1444 17.3302 13.1181C18.2196 13.0643 19.4114 13.899 19.8667 15.7199L20.5633 15.5459ZM20.6682 22.3527C21.2147 20.109 21.1774 17.7627 20.5601 15.5377L19.8682 15.7295C20.4528 17.8366 20.488 20.0583 19.9706 22.1827L20.6682 22.3527ZM19.2435 38.6127C19.3837 38.7529 19.6109 38.7529 19.7513 38.6127C19.8914 38.4725 19.8914 38.2453 19.7513 38.1051L19.2435 38.6127ZM16.5987 35.4109L16.294 35.7156L16.5987 35.4109ZM14.1078 33.0206L14.4124 32.7165L14.4119 32.7159L14.1078 33.0206ZM13.1988 27.9442L13.5253 28.2489C13.5275 28.2384 13.5297 28.2285 13.5317 28.218L13.1988 27.9442ZM20.2158 15.6333L19.8675 15.9098L19.87 15.938L20.2158 15.6333ZM19.9716 22.1823C19.9246 22.375 20.0428 22.569 20.2355 22.6159C20.4279 22.6629 20.6222 22.5447 20.6692 22.3522L19.9716 22.1823Z" fill="#593A26"/>
<path fill-rule="evenodd" clip-rule="evenodd" d="M33.3328 15.302C32.6472 15.9876 30.8515 17.9084 29.2335 19.6506C28.4231 20.5231 27.6553 21.3533 27.0899 21.9653C26.8073 22.2712 26.5754 22.5227 26.4141 22.6976C26.3333 22.785 26.2703 22.8534 26.2274 22.8999C26.206 22.9232 26.1898 22.9408 26.1786 22.9528L26.1662 22.9664L26.1631 22.97L26.1622 22.9708L26.162 22.9711L26.4261 23.2143C26.69 23.4575 26.69 23.4575 26.69 23.4573L26.6902 23.4571L26.6911 23.4564L26.6943 23.4528C26.6971 23.4499 26.7011 23.4453 26.7067 23.4393C26.7176 23.4275 26.7341 23.4097 26.7554 23.3865C26.7982 23.34 26.8611 23.2717 26.9419 23.1843C27.1031 23.0093 27.3349 22.7581 27.6173 22.4524C28.1823 21.8406 28.9497 21.0111 29.7595 20.139C31.3821 18.392 33.1666 16.4834 33.8404 15.8096L33.3328 15.302ZM33.938 14.5253C33.7992 14.8159 33.6003 15.0738 33.3544 15.2819L33.8179 15.8301C34.1417 15.5564 34.4034 15.2171 34.5861 14.8343L33.938 14.5253ZM34.1608 13.5951C34.1537 13.9171 34.0785 14.2339 33.9396 14.5248L34.5876 14.8339C34.7701 14.4514 34.8693 14.0344 34.8786 13.6107L34.1608 13.5951ZM33.9799 12.6569C34.1058 12.9536 34.1672 13.2733 34.1603 13.5955L34.8782 13.6111C34.8873 13.1874 34.8065 12.7664 34.6407 12.3763L33.9799 12.6569ZM33.4305 11.8756C33.6673 12.0941 33.8547 12.3605 33.9806 12.6569L34.6415 12.3763C34.4757 11.9862 34.2292 11.6358 33.9176 11.348L33.4305 11.8756ZM29.9265 13.1951C30.5577 12.5591 31.2367 12.0073 31.8718 11.7342C32.4926 11.4674 33.0062 11.4877 33.4309 11.8764L33.9156 11.3466C33.2107 10.7015 32.3649 10.7408 31.5882 11.0746C30.8255 11.4024 30.0684 12.0328 29.4169 12.6893L29.9265 13.1951ZM19.6148 23.5058L29.9251 13.1958L29.4175 12.688L19.1073 22.9982L19.6148 23.5058ZM26.161 22.9708C26.0266 23.1166 26.036 23.3438 26.1819 23.4779C26.3277 23.6123 26.5549 23.603 26.6891 23.4573L26.161 22.9708ZM33.6371 15.5866L33.3588 15.2819C33.3495 15.289 33.3407 15.2965 33.3324 15.3044L33.6371 15.5866ZM33.6722 11.6516L33.9769 11.3482L33.9755 11.3469L33.6722 11.6516ZM29.671 12.9418L29.9746 13.2465L29.9757 13.2454L29.671 12.9418ZM19.1077 22.999C18.9675 23.1392 18.9675 23.3664 19.1077 23.5066C19.2479 23.6468 19.4751 23.6468 19.6152 23.5066L19.1077 22.999Z" fill="#593A26"/>
<path fill-rule="evenodd" clip-rule="evenodd" d="M32.3758 23.3151C32.5959 23.095 32.8242 22.7443 32.9924 22.3358C33.162 21.9243 33.2811 21.4288 33.257 20.9145C33.233 20.3954 33.0623 19.8589 32.6567 19.3864C32.2532 18.9167 31.6384 18.5351 30.7661 18.2841L30.5676 18.9739C31.3417 19.1968 31.8218 19.5162 32.1121 19.8542C32.4003 20.1897 32.5223 20.5674 32.5398 20.9479C32.5579 21.3337 32.4682 21.7236 32.3287 22.0623C32.1878 22.4041 32.0069 22.6687 31.868 22.8075L32.3758 23.3151ZM28.168 27.0724C28.4239 27.3239 28.4241 27.3239 28.4241 27.3239L28.4245 27.3234L28.4263 27.3216C28.4279 27.3199 28.4301 27.3176 28.4332 27.3145C28.4394 27.3083 28.4486 27.2989 28.4603 27.2867C28.4844 27.2625 28.5193 27.2268 28.5643 27.181C28.6541 27.0895 28.7834 26.9583 28.9408 26.7982C29.2552 26.4783 29.682 26.0443 30.1313 25.588C31.0305 24.6743 32.0176 23.6729 32.3754 23.3151L31.8676 22.8075C31.5073 23.1675 30.5178 24.1718 29.6197 25.0841C29.1702 25.5408 28.7434 25.9749 28.4288 26.2949C28.2714 26.4549 28.1421 26.5864 28.0522 26.6779C28.0073 26.7235 27.9721 26.7593 27.9483 26.7835C27.9365 26.7958 27.9272 26.8049 27.9212 26.8111L27.9143 26.8183L27.9125 26.8201L27.912 26.8205L27.9118 26.8207L28.168 27.0724ZM30.7659 18.2843C30.5754 18.2293 30.3765 18.3395 30.3217 18.5299C30.2668 18.7204 30.3769 18.9194 30.5674 18.9741L30.7659 18.2843ZM27.913 26.8204C27.7742 26.9619 27.7762 27.1891 27.9175 27.328C28.059 27.4671 28.2862 27.4651 28.4251 27.3236L27.913 26.8204Z" fill="#593A26"/>
<path fill-rule="evenodd" clip-rule="evenodd" d="M33.2171 28.1685C33.4808 27.9048 33.8159 27.5346 34.1066 27.104C34.3952 26.6767 34.6547 26.1685 34.7417 25.6313C34.8309 25.0814 34.7372 24.5038 34.3253 23.9799C33.9228 23.4679 33.2434 23.042 32.23 22.7191L32.0119 23.4031C32.9514 23.7025 33.4806 24.0674 33.7607 24.4237C34.0313 24.7679 34.0947 25.1355 34.0329 25.5167C33.9693 25.9103 33.7705 26.3189 33.5115 26.7023C33.2548 27.0824 32.9532 27.4171 32.7095 27.6607L33.2171 28.1685ZM30.8423 30.5425L33.2164 28.1686L32.7088 27.6608L30.3347 30.0349L30.8423 30.5425ZM32.2303 22.7194C32.0414 22.6591 31.8394 22.7634 31.7793 22.9523C31.719 23.1413 31.8233 23.3431 32.0123 23.4034L32.2303 22.7194ZM30.3352 30.0349C30.1951 30.1751 30.1951 30.4023 30.3352 30.5425C30.4755 30.6827 30.7026 30.6827 30.8428 30.5425L30.3352 30.0349Z" fill="#593A26"/>
</svg>
