<svg width="48" height="48" viewBox="0 0 48 48" fill="none" xmlns="http://www.w3.org/2000/svg">
<path fill-rule="evenodd" clip-rule="evenodd" d="M23.9497 40.7613C32.6672 40.7613 39.7341 33.4945 39.7341 24.5306C39.7341 15.5665 32.6672 8.29974 23.9497 8.29974C15.2321 8.29974 8.16528 15.5665 8.16528 24.5306C8.16528 33.4945 15.2321 40.7613 23.9497 40.7613Z" fill="white"/>
<path fill-rule="evenodd" clip-rule="evenodd" d="M30.5617 10.3032C33.1289 11.5055 35.3243 13.3777 36.9169 15.7227C38.5092 18.0677 39.4402 20.7986 39.6112 23.6282H40.3272C40.145 20.6698 39.17 17.8146 37.5048 15.3625C35.8396 12.9104 33.5455 10.9514 30.8628 9.69098L30.5617 10.3032ZM8.13368 25.5689C7.95785 22.7402 8.54765 19.9166 9.84063 17.3946C11.1334 14.8728 13.0818 12.7456 15.481 11.2372L15.097 10.625C12.5863 12.2024 10.5479 14.4282 9.19628 17.0672C7.84467 19.7065 7.23003 22.6616 7.41748 25.6207L8.13368 25.5689ZM24.8508 40.357C22.7817 40.4849 20.7079 40.2038 18.7477 39.5296C16.7872 38.8556 14.9792 37.8017 13.4264 36.4281C11.8738 35.0548 10.6069 33.3889 9.69868 31.5254C8.79019 29.6621 8.2578 27.638 8.13237 25.5689L7.41616 25.6208C7.54982 27.7837 8.10801 29.8988 9.05892 31.846C10.0101 33.7929 11.3354 35.5336 12.9591 36.9685C14.5828 38.4035 16.4734 39.5045 18.5226 40.2087C20.5718 40.913 22.74 41.2066 24.9027 41.0732L24.8508 40.357ZM39.613 23.6283C39.7408 25.6979 39.4598 27.7724 38.7858 29.7334C38.1118 31.6941 37.0579 33.5031 35.6845 35.0566C34.3115 36.6101 32.6453 37.8778 30.782 38.7872C28.9185 39.6969 26.8944 40.2303 24.8247 40.3571L24.8765 41.0734C29.2435 40.801 33.3239 38.8063 36.221 35.5275C39.1184 32.2489 40.596 27.9541 40.329 23.5869L39.613 23.6283ZM30.5938 9.63941C30.5489 9.65558 30.5074 9.68068 30.472 9.71298C30.4365 9.74507 30.408 9.78414 30.3878 9.82757C30.3675 9.87099 30.3559 9.91802 30.354 9.9658C30.3521 10.0136 30.3593 10.0613 30.376 10.1064L31.4137 13.1368C31.4487 13.226 31.5167 13.2984 31.6036 13.3391C31.6904 13.3797 31.7898 13.3852 31.8807 13.3546C31.9254 13.3396 31.9664 13.3158 32.0014 13.2842C32.0363 13.2528 32.0646 13.2144 32.0839 13.1715C32.1034 13.1286 32.1138 13.0822 32.1145 13.0352C32.1152 12.9881 32.1063 12.9414 32.0882 12.898L31.123 10.1998L33.8212 9.22425C33.9107 9.18925 33.9831 9.12124 34.0236 9.03441C34.0643 8.94756 34.0699 8.84817 34.0393 8.75725C34.0024 8.66991 33.9336 8.59972 33.8468 8.56111C33.7599 8.52252 33.662 8.51865 33.5722 8.54978L30.5938 9.63941ZM15.4528 11.2371C15.4984 11.2147 15.5387 11.1829 15.5711 11.1438C15.6036 11.1047 15.6275 11.0593 15.6415 11.0104C15.6553 10.9616 15.6586 10.9103 15.6514 10.8601C15.6444 10.8097 15.6268 10.7616 15.5998 10.7185C15.5728 10.6755 15.537 10.6386 15.4948 10.6102C15.4526 10.5819 15.4051 10.5626 15.3552 10.5537C15.305 10.545 15.2538 10.5467 15.2044 10.559C15.1552 10.5711 15.1088 10.5938 15.0688 10.6249L15.4528 11.2371Z" fill="#593A26"/>
<path d="M26.6224 5.20336C25.1806 4.64369 23.7275 6.07549 23.3153 6.82186C22.7485 5.74896 20.2211 4.26791 19.2935 5.6673C17.9414 7.70717 20.5328 10.3205 23.1606 11.9998C26.998 9.61189 29.0994 6.16487 26.6224 5.20336Z" fill="#F27E49" stroke="#F27E49"/>
<path fill-rule="evenodd" clip-rule="evenodd" d="M29.3095 35.8455C29.9941 36.0856 30.7108 36.2224 31.4359 36.2513L31.4668 35.4736C30.8191 35.4477 30.1787 35.3254 29.5669 35.111L29.3095 35.8455ZM13.1281 17.6943C13.6193 19.8625 14.4886 23.218 16.8281 26.6237C19.1716 30.0349 22.9748 33.4755 29.3011 35.8432L29.5739 35.1142C23.3948 32.8016 19.7211 29.4603 17.4697 26.1829C15.2147 22.9003 14.3716 19.6608 13.8873 17.5223L13.1281 17.6943ZM31.4357 36.2517C31.6504 36.2601 31.8316 36.093 31.84 35.8782C31.8487 35.6636 31.6815 35.4824 31.4666 35.474L31.4357 36.2517ZM29.631 35.4787L29.3007 35.8432L29.31 35.8446L29.3194 35.8458L29.631 35.4787ZM13.8874 17.5224C13.8399 17.3128 13.6315 17.1813 13.4218 17.2288C13.2122 17.2764 13.0807 17.4848 13.1282 17.6944L13.8874 17.5224Z" fill="#593A26"/>
<path fill-rule="evenodd" clip-rule="evenodd" d="M29.3519 35.261C29.3854 35.2246 29.4298 35.2 29.4782 35.1904L29.6288 35.9541C29.7422 35.9317 29.8454 35.874 29.9238 35.7891L29.3519 35.261ZM29.2918 35.3928C29.2973 35.3438 29.3183 35.2977 29.3521 35.261L29.9241 35.7891C30.0025 35.704 30.0517 35.5964 30.0649 35.4818L29.2918 35.3928ZM28.5667 28.2539C29.3005 29.8291 29.4853 32.2231 29.2885 35.4129L30.0655 35.4609C30.263 32.2581 30.0949 29.6914 29.2721 27.9251L28.5667 28.2539ZM23.9063 25.107C26.4776 25.6818 27.8564 26.7271 28.5678 28.2541L29.2732 27.9253C28.4279 26.1105 26.7972 24.9557 24.0759 24.3476L23.9063 25.107ZM17.5386 22.4489C19.4383 23.8099 21.6229 24.72 23.9269 25.1108L24.0569 24.3432C21.8696 23.9725 19.7953 23.1084 17.9919 21.8163L17.5386 22.4489ZM13.1858 17.5451C14.404 19.357 15.8577 20.9985 17.5089 22.4271L18.0181 21.8385C16.4192 20.4553 15.0115 18.8653 13.8316 17.1109L13.1858 17.5451ZM13.3116 17.6459C13.2715 17.6329 13.236 17.6088 13.2093 17.5765L13.8087 17.08C13.7419 16.9992 13.6536 16.9391 13.5542 16.9066L13.3116 17.6459ZM13.449 17.6504C13.4056 17.6605 13.3595 17.6591 13.3165 17.6458L13.5769 16.9064C13.4698 16.8736 13.3553 16.87 13.2466 16.8953L13.449 17.6504ZM13.5418 17.5877C13.5126 17.6184 13.4754 17.6398 13.4347 17.65L13.246 16.8949C13.1447 16.9202 13.0521 16.9738 12.9797 17.0495L13.5418 17.5877ZM13.6002 17.4789C13.5917 17.5201 13.572 17.5582 13.5428 17.5884L12.9807 17.0502C12.9083 17.1257 12.8587 17.2203 12.8376 17.323L13.6002 17.4789ZM17.7507 33.1872C14.3899 30.6217 12.1043 25.7641 13.6011 17.4697L12.8352 17.3314C11.3017 25.8285 13.624 31.0164 17.2784 33.8057L17.7507 33.1872ZM23.3652 35.5158C21.3394 35.1665 19.4175 34.368 17.7405 33.1788L17.2903 33.8137C19.0619 35.0702 21.0926 35.9138 23.2328 36.2829L23.3652 35.5158ZM29.4473 35.1973C27.4692 35.7562 25.3908 35.865 23.3649 35.5158L23.2325 36.2829C25.3729 36.6519 27.5688 36.5369 29.6591 35.9461L29.4473 35.1973ZM29.6785 35.4368L30.0652 35.7671L30.0665 35.6917L30.0672 35.6146L29.6785 35.4368ZM23.9898 24.7274L24.3201 24.3477L24.2816 24.3453L24.2431 24.3436L23.9898 24.7274ZM17.8396 22.1328L17.5093 22.4401L17.5269 22.4522L17.5456 22.4631L17.8396 22.1328ZM13.5088 17.4097L13.8391 17.1208L13.828 17.0993L13.8155 17.0794L13.5088 17.4097ZM13.2178 17.6527L12.8364 17.3224L12.8354 17.3407L12.8347 17.3591L13.2178 17.6527ZM17.6096 33.4966L17.2793 33.8184L17.2871 33.8229L17.2949 33.8269L17.6096 33.4966Z" fill="#593A26"/>
<path fill-rule="evenodd" clip-rule="evenodd" d="M18.3876 27.4513C18.0844 27.0776 17.958 26.3896 17.999 25.4906C18.0391 24.6159 18.2313 23.6362 18.4612 22.7736L17.7088 22.5734C17.4717 23.4647 17.265 24.5037 17.2217 25.4553C17.1796 26.3826 17.2864 27.3294 17.7829 27.9414L18.3876 27.4513ZM18.4624 22.7742C18.5176 22.5669 18.3938 22.3535 18.1864 22.298C17.9787 22.2427 17.7657 22.3663 17.71 22.5739L18.4624 22.7742ZM17.7839 27.9415C17.919 28.1084 18.1644 28.134 18.331 27.9989C18.498 27.8633 18.5238 27.6185 18.3887 27.4513L17.7839 27.9415Z" fill="#593A26"/>
<path fill-rule="evenodd" clip-rule="evenodd" d="M22.7623 31.5444C21.7875 30.8974 21.4242 29.664 21.4406 28.2487C21.4568 26.8472 21.8476 25.3817 22.2418 24.4436L21.5241 24.142C21.0986 25.155 20.6798 26.7198 20.6624 28.2396C20.6451 29.7456 21.0238 31.3247 22.332 32.1929L22.7623 31.5444ZM22.2423 24.4432C22.3255 24.2452 22.2324 24.017 22.0344 23.9337C21.8361 23.8505 21.6081 23.9436 21.5247 24.1416L22.2423 24.4432ZM22.3327 32.1927C22.5117 32.3116 22.7534 32.2626 22.8721 32.0836C22.991 31.9044 22.942 31.6629 22.763 31.5443L22.3327 32.1927Z" fill="#593A26"/>
<path fill-rule="evenodd" clip-rule="evenodd" d="M20.1002 29.3351C19.2387 28.7465 18.2478 28.8073 17.3762 29.1069C16.5056 29.4057 15.6951 29.9599 15.1123 30.4616L15.6201 31.0514C16.1582 30.588 16.8836 30.099 17.629 29.8428C18.374 29.5872 19.0798 29.5806 19.6609 29.9777L20.1002 29.3351ZM15.112 30.462C14.9492 30.6022 14.9308 30.848 15.071 31.0108C15.2114 31.1736 15.457 31.192 15.6198 31.0518L15.112 30.462ZM19.6614 29.9789C19.8389 30.1002 20.0809 30.0547 20.2022 29.8771C20.3236 29.6998 20.278 29.4576 20.1007 29.3363L19.6614 29.9789Z" fill="#593A26"/>
<path fill-rule="evenodd" clip-rule="evenodd" d="M25.2473 33.1303C24.9173 32.8893 24.4688 32.7446 23.9854 32.6749C23.4957 32.6042 22.9399 32.6059 22.3701 32.6828C21.2364 32.8355 19.9967 33.2929 19.0873 34.1345L19.616 34.7058C20.3773 34.0011 21.452 33.5918 22.4741 33.454C22.9824 33.3855 23.4651 33.386 23.8742 33.4451C24.2894 33.5052 24.5996 33.621 24.7884 33.7589L25.2473 33.1303ZM19.087 34.1351C18.9292 34.2811 18.9198 34.5274 19.0657 34.6851C19.2117 34.8429 19.458 34.8523 19.6157 34.7064L19.087 34.1351ZM24.7884 33.7589C24.9621 33.8855 25.2055 33.8477 25.3322 33.674C25.4591 33.5005 25.4209 33.2569 25.2473 33.1302L24.7884 33.7589Z" fill="#593A26"/>
<path fill-rule="evenodd" clip-rule="evenodd" d="M27.1421 34.1175C26.1198 33.1515 25.6475 31.6193 25.5681 29.9902C25.489 28.3672 25.8048 26.7216 26.2783 25.6069L25.5618 25.3024C25.0391 26.5329 24.7062 28.2966 24.7906 30.0281C24.8748 31.7536 25.3778 33.5214 26.6076 34.6831L27.1421 34.1175ZM26.278 25.607C26.362 25.4092 26.2698 25.1808 26.072 25.0966C25.8742 25.0126 25.6458 25.1048 25.5616 25.3026L26.278 25.607ZM26.6089 34.6832C26.7653 34.8309 27.0116 34.8239 27.1592 34.6675C27.3066 34.5112 27.2996 34.2649 27.1435 34.1176L26.6089 34.6832Z" fill="#593A26"/>
</svg>
