<svg width="56" height="24" viewBox="0 0 56 24" fill="none" xmlns="http://www.w3.org/2000/svg">
<rect x="0.5" y="0.5" width="55" height="23" rx="1.5" fill="white" stroke="#E4E4E4"/>
<path d="M17.0428 10.2545C16.6971 9.52928 16.0417 9.06081 15.0541 9.06081C14.7509 9.06609 14.4531 9.14095 14.1834 9.27956C13.9138 9.41819 13.6796 9.61689 13.4989 9.86035L13.4629 9.90427V7.06194C13.4629 7.04551 13.4563 7.02976 13.4447 7.01814C13.4331 7.00653 13.4174 7 13.4009 7H12.0045C11.9883 7.0003 11.9728 7.00695 11.9615 7.01853C11.9501 7.03012 11.9437 7.0457 11.9437 7.06194V15.2151C11.9437 15.2312 11.9501 15.2467 11.9615 15.2581C11.9729 15.2695 11.9884 15.2759 12.0045 15.2759H13.5C13.5163 15.2759 13.5319 15.2695 13.5434 15.2581C13.555 15.2468 13.5617 15.2313 13.562 15.2151V11.7387C13.562 11.0631 14.0124 10.5845 14.7331 10.5845C15.5214 10.5845 15.7207 11.2331 15.7207 11.8941V15.2151C15.7207 15.2312 15.7272 15.2467 15.7386 15.2581C15.75 15.2695 15.7654 15.2759 15.7816 15.2759H17.2737C17.2899 15.2759 17.3055 15.2695 17.3171 15.2581C17.3286 15.2468 17.3353 15.2313 17.3356 15.2151V11.6959C17.3356 11.5754 17.3356 11.4572 17.3198 11.3423C17.2942 10.9659 17.2003 10.5973 17.0428 10.2545Z" fill="#5A31F4"/>
<path d="M9.57549 11.4628C9.57549 11.4628 8.81422 11.2838 8.53382 11.2117C8.25341 11.1396 7.76355 10.9865 7.76355 10.616C7.76355 10.2455 8.15882 10.1273 8.55972 10.1273C8.96063 10.1273 9.40657 10.2241 9.44148 10.6689C9.44288 10.685 9.45027 10.6999 9.46215 10.7107C9.47404 10.7216 9.48957 10.7276 9.50566 10.7275L10.9798 10.7219C10.9884 10.7219 10.997 10.7201 11.005 10.7167C11.0129 10.7132 11.0201 10.7082 11.026 10.7018C11.0319 10.6955 11.0365 10.688 11.0394 10.6798C11.0423 10.6716 11.0434 10.663 11.0428 10.6543C10.9516 9.23087 9.70273 8.72186 8.55071 8.72186C7.18472 8.72186 6.18585 9.62276 6.18585 10.616C6.18585 11.3412 6.3908 12.0214 8.00228 12.4944C8.28494 12.5766 8.66896 12.6836 9.00454 12.777C9.40769 12.8896 9.62503 13.0597 9.62503 13.3277C9.62503 13.6385 9.17459 13.8547 8.73202 13.8547C8.09126 13.8547 7.6363 13.6171 7.59913 13.1903C7.5972 13.1747 7.5896 13.1603 7.57776 13.15C7.56593 13.1396 7.55069 13.1339 7.53494 13.134L6.06423 13.1408C6.05561 13.1408 6.04707 13.1425 6.03913 13.1459C6.0312 13.1492 6.02402 13.1542 6.01803 13.1604C6.01203 13.1666 6.00735 13.1739 6.00426 13.182C6.00117 13.19 5.99974 13.1986 6.00004 13.2072C6.06761 14.5507 7.3649 15.2748 8.57437 15.2748C10.3762 15.2748 11.1903 14.2613 11.1903 13.312C11.1926 12.866 11.0901 11.8502 9.57549 11.4628Z" fill="#5A31F4"/>
<path d="M28.5394 9.05853C27.7905 9.05853 27.1632 9.47294 26.759 9.97294V9.1171C26.759 9.10116 26.7527 9.08585 26.7415 9.07448C26.7305 9.06311 26.7152 9.05658 26.6993 9.05627H25.3008C25.2846 9.05627 25.269 9.06269 25.2577 9.07409C25.2463 9.0855 25.2398 9.10096 25.2398 9.1171V17.1126C25.2402 17.1285 25.2466 17.1437 25.258 17.1548C25.2695 17.166 25.2848 17.1722 25.3008 17.1722H26.7974C26.8131 17.1722 26.8283 17.166 26.8395 17.1548C26.8507 17.1436 26.8569 17.1284 26.8569 17.1126V14.4842H26.8795C27.1171 14.8468 27.7669 15.2815 28.6161 15.2815C30.2128 15.2815 31.5439 13.9572 31.5439 12.1678C31.5451 10.4504 30.2208 9.05853 28.5394 9.05853ZM28.4009 13.7578C28.0857 13.7657 27.7752 13.6794 27.5093 13.51C27.2433 13.3407 27.0338 13.0959 26.9075 12.8069C26.7812 12.518 26.7439 12.1979 26.8004 11.8877C26.8568 11.5775 27.0044 11.291 27.2243 11.0651C27.4443 10.8391 27.7265 10.6837 28.0352 10.6189C28.3437 10.554 28.6646 10.5825 28.9568 10.7009C29.2492 10.8192 29.4995 11.0219 29.6762 11.2832C29.8527 11.5445 29.9474 11.8524 29.9482 12.1678C29.9515 12.3739 29.9139 12.5786 29.8379 12.7702C29.7619 12.9618 29.6487 13.1365 29.505 13.2843C29.3612 13.432 29.1897 13.5499 29.0001 13.6312C28.8107 13.7124 28.6071 13.7555 28.4009 13.7578Z" fill="#5A31F4"/>
<path d="M20.8108 8.70715C19.4155 8.70715 18.7196 9.18125 18.1611 9.56076L18.1442 9.57202C18.1154 9.59174 18.0951 9.62161 18.0874 9.65564C18.0796 9.68966 18.085 9.72537 18.1025 9.75557L18.6543 10.706C18.6646 10.7238 18.6788 10.7391 18.6957 10.7508C18.7127 10.7625 18.732 10.7702 18.7523 10.7736C18.7721 10.7772 18.7925 10.7763 18.812 10.7711C18.8315 10.7658 18.8495 10.7563 18.8649 10.7432L18.9088 10.7071C19.196 10.4662 19.6565 10.1441 20.7714 10.0563C21.3919 10.0067 21.9279 10.1689 22.3232 10.5382C22.7579 10.9391 23.0181 11.5867 23.0181 12.2702C23.0181 13.5281 22.277 14.3186 21.0867 14.3344C20.1059 14.3288 19.4471 13.8175 19.4471 13.0619C19.4471 12.661 19.6284 12.3997 19.982 12.1385C20.009 12.1192 20.0281 12.0907 20.0357 12.0584C20.0434 12.0261 20.0391 11.9922 20.0237 11.9628L19.5282 11.0258C19.519 11.0091 19.5066 10.9943 19.4918 10.9823C19.4769 10.9703 19.4598 10.9614 19.4415 10.956C19.4227 10.9504 19.403 10.9489 19.3836 10.9514C19.3642 10.9539 19.3455 10.9605 19.3288 10.9707C18.7725 11.3006 18.0901 11.9042 18.1273 13.0641C18.1723 14.5405 19.3998 15.6677 20.9955 15.7139H21.0755H21.1847C23.081 15.652 24.4504 14.2443 24.4504 12.3355C24.4504 10.5833 23.1734 8.70715 20.8108 8.70715Z" fill="#5A31F4"/>
<path d="M37.4414 9.60809H36.4909C36.4687 9.60838 36.4473 9.61738 36.4315 9.63314C36.4157 9.64892 36.4067 9.67024 36.4066 9.69255V11.6869C36.4067 11.7091 36.4159 11.7303 36.4317 11.7459C36.4475 11.7615 36.4687 11.7703 36.4909 11.7703H37.4414C38.0203 11.7703 38.4471 11.3142 38.4471 10.6892C38.4471 10.0642 38.0203 9.60809 37.4414 9.60809Z" fill="#5A31F4"/>
<path d="M40.3615 13.1362C40.3615 13.4256 40.6059 13.5867 41.0315 13.5867C41.6103 13.5867 41.9526 13.2736 41.9526 12.7184V12.5585L41.0856 12.6036C40.6284 12.6261 40.3615 12.8164 40.3615 13.1362Z" fill="#5A31F4"/>
<path d="M47.3997 7.01802H34.6295C34.4201 7.01802 34.2125 7.0593 34.019 7.1395C33.8254 7.21971 33.6496 7.33727 33.5016 7.48546C33.3535 7.63365 33.236 7.80957 33.1559 8.00316C33.0758 8.19676 33.0348 8.40423 33.0349 8.61373V15.6047C33.0349 16.0277 33.2029 16.4334 33.502 16.7327C33.8008 17.0319 34.2064 17.2001 34.6295 17.2004H47.3997C47.6095 17.201 47.8172 17.1603 48.0113 17.0805C48.2053 17.0007 48.3816 16.8834 48.5301 16.7354C48.6788 16.5874 48.7969 16.4116 48.8775 16.218C48.9581 16.0243 48.9997 15.8167 49 15.607V8.61598C49.0004 8.40582 48.9593 8.19764 48.879 8.00342C48.7988 7.8092 48.6808 7.63276 48.5322 7.48426C48.3833 7.33575 48.2068 7.21811 48.0125 7.1381C47.8182 7.05808 47.6098 7.01727 47.3997 7.01802ZM37.4898 12.5552H36.4853C36.4629 12.5552 36.4415 12.5641 36.4256 12.5799C36.4098 12.5957 36.4008 12.6172 36.4008 12.6396V14.0698C36.4008 14.0922 36.392 14.1137 36.3762 14.1295C36.3603 14.1454 36.3389 14.1543 36.3165 14.1543H35.6092C35.5869 14.154 35.5655 14.145 35.5498 14.1292C35.534 14.1134 35.525 14.0921 35.5248 14.0698V8.91103C35.5248 8.88863 35.5336 8.86714 35.5494 8.85131C35.5654 8.83546 35.5868 8.82657 35.6092 8.82657H37.4898C38.5552 8.82657 39.3175 9.60246 39.3175 10.6914C39.3175 11.7804 38.5608 12.5574 37.4954 12.5574L37.4898 12.5552ZM42.7826 14.0687C42.7828 14.0799 42.7808 14.091 42.7765 14.1013C42.7723 14.1117 42.7662 14.1212 42.7584 14.1291C42.7504 14.1371 42.7411 14.1434 42.7307 14.1477C42.7204 14.152 42.7093 14.1543 42.6981 14.1543H42.0303C42.0191 14.1543 42.0081 14.152 41.9978 14.1477C41.9874 14.1434 41.9781 14.1371 41.9703 14.1291C41.9625 14.1212 41.9562 14.1117 41.9519 14.1013C41.9479 14.091 41.9458 14.0799 41.9458 14.0687V13.9144C41.947 13.9009 41.9438 13.8873 41.9365 13.8758C41.9294 13.8643 41.9187 13.8554 41.906 13.8505C41.8934 13.8455 41.8795 13.8448 41.8662 13.8484C41.8532 13.852 41.8416 13.8598 41.8333 13.8705C41.6339 14.0878 41.3096 14.2455 40.7927 14.2455C40.0314 14.2455 39.5281 13.8491 39.5281 13.1644C39.5208 12.9974 39.5552 12.8313 39.6284 12.6811C39.7015 12.5308 39.8112 12.4012 39.9471 12.304C40.2218 12.098 40.6474 11.991 41.2792 11.9662L41.9492 11.9437V11.7477C41.9492 11.3525 41.6835 11.1847 41.2567 11.1847C40.8299 11.1847 40.5607 11.3356 40.4978 11.5822C40.4927 11.5996 40.482 11.6148 40.4672 11.6255C40.4526 11.6361 40.4348 11.6415 40.4167 11.6408H39.7557C39.7434 11.641 39.7314 11.6387 39.7202 11.6338C39.709 11.6289 39.6992 11.6217 39.691 11.6126C39.683 11.6035 39.6771 11.5927 39.6737 11.581C39.6701 11.5693 39.6693 11.5571 39.6711 11.545C39.7703 10.9595 40.2544 10.5146 41.2871 10.5146C42.384 10.5146 42.7792 11.0248 42.7792 11.9989L42.7826 14.0687ZM46.9425 10.7218L45.4561 14.6869C45.1183 15.6081 44.527 15.8446 43.8794 15.8446C43.7574 15.8475 43.6357 15.8327 43.518 15.8007C43.4996 15.7957 43.4833 15.7849 43.4718 15.7698C43.4603 15.7548 43.4538 15.7363 43.4538 15.7173V15.1149C43.4538 15.1022 43.4565 15.0898 43.4618 15.0784C43.467 15.0669 43.4749 15.0568 43.4845 15.0488C43.4942 15.0407 43.5056 15.0349 43.5178 15.0317C43.53 15.0285 43.5427 15.0281 43.5551 15.0304C43.6573 15.0498 43.761 15.0596 43.8648 15.0597C44.0439 15.0687 44.2209 15.0173 44.3672 14.9137C44.5136 14.8102 44.621 14.6606 44.6723 14.4887L44.7162 14.3502C44.723 14.3317 44.723 14.3113 44.7162 14.2928L43.3265 10.723C43.3223 10.7102 43.3211 10.6966 43.3231 10.6833C43.325 10.67 43.3301 10.6573 43.3379 10.6464C43.3457 10.6354 43.3561 10.6264 43.3679 10.6202C43.3798 10.6139 43.3931 10.6105 43.4065 10.6103H44.0822C44.0995 10.6105 44.1163 10.6159 44.1306 10.6257C44.1448 10.6355 44.1559 10.6494 44.1621 10.6655L45.1059 13.1835C45.1121 13.2 45.1232 13.2142 45.1376 13.2242C45.1522 13.2342 45.1693 13.2395 45.187 13.2395C45.2045 13.2395 45.2216 13.2342 45.2362 13.2242C45.2506 13.2142 45.2618 13.2 45.2679 13.1835L46.0867 10.6723C46.0922 10.6552 46.103 10.6402 46.1176 10.6297C46.1322 10.6192 46.1497 10.6136 46.1677 10.6137H46.8602C46.8737 10.6137 46.8869 10.6168 46.8989 10.6228C46.9108 10.6288 46.9212 10.6375 46.9293 10.6482C46.9373 10.6589 46.9425 10.6714 46.9449 10.6846C46.9473 10.6977 46.9465 10.7113 46.9425 10.7241V10.7218Z" fill="#5A31F4"/>
</svg>
