<svg width="48" height="48" viewBox="0 0 48 48" fill="none" xmlns="http://www.w3.org/2000/svg">
<path fill-rule="evenodd" clip-rule="evenodd" d="M31.4698 38.937L32.4438 20.4266C32.4752 19.8289 31.9174 19.3871 31.3415 19.5507C29.6037 20.0444 27.3026 20.5262 24.5906 19.214C20.8339 17.3963 17.2463 18.0858 15.8354 18.966C15.6107 19.1062 15.5085 19.3676 15.5225 19.6319L16.5383 38.937C16.5629 39.4043 16.9488 39.7705 17.4167 39.7705H30.5914C31.0593 39.7705 31.4452 39.4043 31.4698 38.937L31.4698 38.937Z" fill="#FFFBF2"/>
<path fill-rule="evenodd" clip-rule="evenodd" d="M31.4705 38.937L32.4445 20.4268C32.476 19.8289 31.9181 19.3871 31.3422 19.5507C29.6045 20.0443 27.3035 20.5264 24.5913 19.2142C20.8346 17.3966 17.247 18.086 15.8361 18.9662C15.6115 19.1061 15.5093 19.3676 15.5232 19.6318L16.539 38.937C16.5636 39.4043 16.9496 39.7705 17.4174 39.7705H30.5921C31.06 39.7705 31.446 39.4043 31.4705 38.937H31.4705Z" fill="white"/>
<mask id="mask0_4324_4949" style="mask-type:luminance" maskUnits="userSpaceOnUse" x="15" y="18" width="18" height="22">
<path fill-rule="evenodd" clip-rule="evenodd" d="M31.4705 38.937L32.4445 20.4268C32.476 19.8289 31.9181 19.3871 31.3422 19.5507C29.6045 20.0443 27.3035 20.5264 24.5913 19.2142C20.8346 17.3966 17.247 18.086 15.8361 18.9662C15.6115 19.1061 15.5093 19.3676 15.5232 19.6318L16.539 38.937C16.5636 39.4043 16.9496 39.7705 17.4174 39.7705H30.5921C31.06 39.7705 31.446 39.4043 31.4705 38.937H31.4705Z" fill="white"/>
</mask>
<g mask="url(#mask0_4324_4949)">
<path fill-rule="evenodd" clip-rule="evenodd" d="M16.4601 19.583C16.4601 19.5843 16.4613 19.6028 16.4466 19.636C16.4299 19.6731 16.3941 19.724 16.3327 19.7623L15.34 18.1708C14.7565 18.535 14.56 19.1669 14.5872 19.6817L16.4601 19.583ZM33.382 20.4762C33.4477 19.2309 32.2765 18.3112 31.0869 18.649L31.5994 20.4531C31.5961 20.4541 31.5852 20.4559 31.571 20.4529C31.5583 20.4504 31.5476 20.4448 31.539 20.4382C31.5307 20.4314 31.5226 20.4217 31.5165 20.4088C31.5099 20.3943 31.5089 20.3821 31.5091 20.3778L33.382 20.4762ZM30.5347 38.8882C30.5362 38.8573 30.5618 38.8332 30.5927 38.8332V40.7089C31.5594 40.7089 32.3568 39.9522 32.4075 38.9868L30.5347 38.8882ZM17.4168 38.8332C17.4478 38.8332 17.4734 38.8573 17.4749 38.8882L15.6021 38.9868C15.6528 39.9522 16.4502 40.7089 17.4168 40.7089V38.8332ZM24.1838 20.0587C27.21 21.5229 29.7909 20.9671 31.5994 20.4533L31.0869 18.6492C29.4202 19.1225 27.3989 19.5308 25.0006 18.3705L24.1838 20.0587ZM16.3326 19.762C17.4491 19.0654 20.6931 18.3698 24.183 20.0584L24.9998 18.3701C20.9765 16.4234 17.0454 17.1065 15.3398 18.1705L16.3326 19.762ZM17.4756 38.8885L16.4598 19.5834L14.5869 19.682L15.6028 38.9872L17.4756 38.8885ZM30.5917 38.8332H17.417V40.7089H30.5917V38.8332ZM31.5086 20.3776L30.5347 38.8878L32.4075 38.9864L33.3815 20.476L31.5086 20.3776ZM31.4475 19.5509L31.0869 18.6488L31.4475 19.5509ZM24.5911 19.2146L24.9993 18.3705L24.5911 19.2146ZM15.8363 18.9666L15.3398 18.1708L15.8363 18.9666ZM15.5244 19.9439L16.4609 19.5834L15.5244 19.9439ZM16.5385 38.9376L15.6021 39.2982L16.5385 38.9376ZM31.4707 38.9376L32.4072 39.2982L31.4707 38.9376ZM32.4452 20.7382L31.5088 20.3776L32.4452 20.7382Z" fill="#593A26"/>
</g>
<path fill-rule="evenodd" clip-rule="evenodd" d="M14.103 6.46112C13.1592 6.46112 12.4099 7.25477 12.4639 8.19679L13.4001 8.14331C13.3771 7.73933 13.6983 7.39905 14.103 7.39905V6.46112ZM33.905 7.39906C34.3097 7.39906 34.631 7.73934 34.6079 8.14332L35.5441 8.1968C35.5981 7.25478 34.8485 6.46113 33.905 6.46113V7.39906ZM32.0584 42.0002C32.9287 42.0002 33.6478 41.3211 33.6975 40.4524L32.7611 40.3986C32.7398 40.7714 32.4314 41.0624 32.0584 41.0624V42.0002ZM15.9503 41.0624C15.5771 41.0624 15.2687 40.7714 15.2474 40.3986L14.3112 40.4524C14.3609 41.3211 15.0801 42.0002 15.9503 42.0002L15.9503 41.0624ZM34.1587 15.9943L32.7615 40.3991L33.698 40.4528L35.0952 16.048L34.1587 15.9943ZM34.6083 8.14387L34.4021 11.7421L35.3386 11.7956L35.5445 8.19735L34.6083 8.14387ZM15.2474 40.3986L13.4009 8.14387L12.4646 8.19735L14.3112 40.4523L15.2474 40.3986ZM32.0591 41.0626H15.951V42.0003H32.0591V41.0626ZM14.1038 7.39906H33.905V6.46113H14.1038V7.39906ZM33.2297 40.425L33.6978 40.7856L33.2297 40.425ZM35.0934 16.0477C35.1081 15.7891 34.9105 15.5675 34.6519 15.5527C34.3935 15.5378 34.1719 15.7355 34.1569 15.994L35.0934 16.0477ZM34.4023 11.7423C34.3876 12.0007 34.5852 12.2223 34.8438 12.2373C35.1022 12.252 35.3238 12.0545 35.3388 11.7958L34.4023 11.7423ZM35.0762 8.50445L34.6081 8.14387L35.0762 8.50445ZM12.9328 8.17061L12.4646 8.53118L12.9328 8.17061ZM14.78 40.7592L15.2481 40.3986L14.78 40.7592Z" fill="#593A26"/>
<path fill-rule="evenodd" clip-rule="evenodd" d="M18.4878 27.6924V32.384H19.4255V27.6924H18.4878ZM18.4878 32.3839C18.4878 32.6428 18.6978 32.8527 18.9567 32.8527C19.2155 32.8527 19.4255 32.6428 19.4255 32.3839H18.4878ZM19.4255 27.6921C19.4255 27.4332 19.2155 27.2233 18.9567 27.2233C18.6978 27.2233 18.4878 27.4332 18.4878 27.6921H19.4255Z" fill="#F27E49"/>
<path fill-rule="evenodd" clip-rule="evenodd" d="M18.4878 34.5961V35.5338H19.4255V34.5961H18.4878ZM18.4878 35.534C18.4878 35.7932 18.6978 36.0032 18.9567 36.0032C19.2155 36.0032 19.4255 35.7932 19.4255 35.534H18.4878ZM19.4255 34.5962C19.4255 34.3373 19.2155 34.1273 18.9567 34.1273C18.6978 34.1273 18.4878 34.3373 18.4878 34.5962H19.4255Z" fill="#F27E49"/>
</svg>
