<svg width="48" height="48" viewBox="0 0 48 48" fill="none" xmlns="http://www.w3.org/2000/svg">
<path fill-rule="evenodd" clip-rule="evenodd" d="M24.2106 38.3629C31.777 38.3629 37.9108 32.2291 37.9108 24.6626C37.9108 17.0962 31.777 10.9624 24.2106 10.9624C16.6442 10.9624 10.5104 17.0962 10.5104 24.6626C10.5104 32.2291 16.6442 38.3629 24.2106 38.3629Z" fill="white"/>
<path fill-rule="evenodd" clip-rule="evenodd" d="M17.0357 22.2877C17.0785 22.1844 17.1412 22.0909 17.2204 22.0119L16.5688 21.3589C16.4039 21.5234 16.273 21.7188 16.1836 21.9342L17.0357 22.2877ZM16.9706 22.6119C16.9706 22.5004 16.9925 22.3897 17.0354 22.2867L16.1833 21.9331C16.0941 22.1483 16.0481 22.379 16.0481 22.6119H16.9706ZM17.0354 22.9383C16.9925 22.835 16.9706 22.7246 16.9706 22.6128H16.0481C16.0481 22.846 16.0941 23.0767 16.1833 23.2919L17.0354 22.9383ZM17.2204 23.2132C17.1412 23.1345 17.0786 23.0407 17.0357 22.9376L16.1836 23.2912C16.273 23.5063 16.4039 23.7017 16.5688 23.8664L17.2204 23.2132ZM24.5572 30.4982L17.2197 23.213L16.5696 23.8677L23.9071 31.1529L24.5572 30.4982ZM38.6854 15.6779L23.9055 30.4997L24.5585 31.151L39.3384 16.3291L38.6854 15.6779ZM38.8697 15.4028C38.8273 15.5049 38.765 15.5977 38.6865 15.6757L39.3363 16.3302C39.5011 16.1667 39.6322 15.972 39.7213 15.7574L38.8697 15.4028ZM38.934 15.0806C38.934 15.1914 38.9123 15.3008 38.8696 15.4029L39.7212 15.7575C39.8106 15.543 39.8564 15.313 39.8564 15.0806H38.934ZM38.8696 14.7586C38.9123 14.8604 38.934 14.9701 38.934 15.0807H39.8564C39.8564 14.8485 39.8106 14.6185 39.7212 14.4038L38.8696 14.7586ZM38.6865 14.4857C38.765 14.5637 38.8273 14.6566 38.8697 14.7587L39.7213 14.4039C39.6322 14.1895 39.5011 13.9948 39.3363 13.8311L38.6865 14.4857ZM37.7959 13.5938L38.687 14.4849L39.3392 13.8326L38.4482 12.9415L37.7959 13.5938ZM37.5205 13.4097C37.6226 13.4523 37.7152 13.5145 37.7932 13.5932L38.4479 12.9431C38.2841 12.7784 38.0895 12.6475 37.875 12.5581L37.5205 13.4097ZM37.1982 13.3451C37.3089 13.3451 37.4183 13.3668 37.5206 13.4094L37.8751 12.5578C37.6607 12.4687 37.4304 12.4226 37.1982 12.4226V13.3451ZM36.8767 13.4094C36.9788 13.3668 37.0885 13.3451 37.1991 13.3451V12.4226C36.9667 12.4226 36.7366 12.4687 36.5222 12.5578L36.8767 13.4094ZM36.6047 13.5932C36.6826 13.5145 36.7755 13.4523 36.8776 13.4097L36.523 12.5581C36.3086 12.6475 36.1137 12.7784 35.9502 12.9431L36.6047 13.5932ZM24.5158 25.6798L36.6018 13.5938L35.9495 12.9415L23.8638 25.0278L24.5158 25.6798ZM19.3037 21.1205L23.8635 25.6801L24.5156 25.0281L19.956 20.4683L19.3037 21.1205ZM18.7075 20.8795C18.9319 20.8795 19.1473 20.9673 19.3079 21.1239L19.9521 20.4638C19.6193 20.1388 19.1727 19.957 18.7075 19.957V20.8795ZM18.1081 21.1239C18.2684 20.9673 18.4841 20.8795 18.7082 20.8795V19.957C18.2433 19.957 17.7967 20.1388 17.4639 20.4638L18.1081 21.1239ZM17.2194 22.0114L18.1105 21.1205L17.4582 20.4683L16.5674 21.3593L17.2194 22.0114ZM16.901 23.54L16.5674 23.8729L16.5681 23.8737L16.901 23.54ZM24.2328 30.8247L23.9077 31.1522L24.2345 31.4765L24.5593 31.1505L24.2328 30.8247ZM39.0202 16.0097L38.6883 15.676L38.6865 15.6778L39.0202 16.0097ZM39.0202 14.1584L38.6865 14.4909L38.6878 14.4921L39.0202 14.1584ZM38.1281 13.2671L37.7944 13.5997L37.7957 13.6007L38.1281 13.2671ZM37.1982 12.8833V13.3445V12.8833ZM36.2769 13.2671L36.6092 13.6007L36.6105 13.5997L36.2769 13.2671ZM24.1898 25.3535L23.8638 25.6795L24.1898 26.0058L24.5158 25.6795L24.1898 25.3535ZM19.6311 20.7975L19.9647 20.4678L19.9625 20.4658L19.9605 20.4639L19.6311 20.7975ZM17.7924 20.7975L17.463 20.4639L17.4607 20.4658L17.4587 20.4678L17.7924 20.7975ZM16.8955 21.6844L17.2289 22.0181L17.2291 22.0176L16.8955 21.6844Z" fill="#F27E49"/>
<path fill-rule="evenodd" clip-rule="evenodd" d="M21.9005 11.5858C24.77 11.0833 27.7251 11.5421 30.3069 12.891L30.7341 12.0736C27.9722 10.6306 24.811 10.1397 21.7413 10.6772L21.9005 11.5858ZM14.4382 15.6694C16.4085 13.5235 19.0317 12.0879 21.9013 11.5857L21.7422 10.6771C18.6725 11.2144 15.8663 12.7499 13.7587 15.0455L14.4382 15.6694ZM11.0051 23.4532C11.2612 20.5513 12.4681 17.815 14.4383 15.6693L13.7587 15.0453C11.6511 17.3408 10.3602 20.2679 10.0863 23.3721L11.0051 23.4532ZM13.0213 31.7176C11.4572 29.2601 10.7482 26.3547 11.0042 23.453L10.0854 23.3718C9.81154 26.4761 10.5701 29.5839 12.243 32.213L13.0213 31.7176ZM19.6535 37.0458C16.9164 36.0487 14.5849 34.1759 13.0208 31.7181L12.2426 32.2135C13.9155 34.8426 16.4096 36.8457 19.3377 37.9124L19.6535 37.0458ZM28.1602 37.2321C25.3817 38.108 22.392 38.0425 19.6548 37.0454L19.339 37.9121C22.267 38.9786 25.4653 39.049 28.4375 38.1119L28.1602 37.2321ZM35.0198 32.2015C33.3492 34.5882 30.9378 36.3569 28.1595 37.2326L28.4368 38.1124C31.409 37.1753 33.9886 35.2836 35.7754 32.7305L35.0198 32.2015ZM37.3965 24.0332C37.525 26.9435 36.689 29.8148 35.0187 32.2015L35.7743 32.7304C37.5613 30.1774 38.4555 27.1058 38.3181 23.9926L37.3965 24.0332ZM30.3077 12.8913C30.5336 13.0093 30.8124 12.9218 30.9303 12.6962C31.0482 12.4703 30.9607 12.1918 30.7349 12.0739L30.3077 12.8913ZM38.3196 23.9919C38.3083 23.7375 38.093 23.5402 37.8386 23.5514C37.584 23.5626 37.3868 23.778 37.398 24.0326L38.3196 23.9919Z" fill="#593A26"/>
<path fill-rule="evenodd" clip-rule="evenodd" d="M24.8877 6.99941V4.55698H24.0804V6.99941H24.8877ZM24.8877 4.55696C24.8877 4.33423 24.7069 4.15344 24.484 4.15344C24.2613 4.15344 24.0805 4.33423 24.0805 4.55696H24.8877ZM24.0804 6.9999C24.0804 7.22284 24.2612 7.40338 24.4839 7.40338C24.7069 7.40338 24.8877 7.22284 24.8877 6.9999H24.0804Z" fill="#F27E49"/>
<path fill-rule="evenodd" clip-rule="evenodd" d="M24.8877 44.7777V42.3353H24.0804V44.7777H24.8877ZM24.8877 42.3347C24.8877 42.1121 24.7069 41.9313 24.484 41.9313C24.2613 41.9313 24.0805 42.1121 24.0805 42.3347H24.8877ZM24.0804 44.7779C24.0804 45.0009 24.2612 45.1814 24.4839 45.1814C24.7069 45.1814 24.8877 45.0009 24.8877 44.7779H24.0804Z" fill="#F27E49"/>
<path fill-rule="evenodd" clip-rule="evenodd" d="M38.731 38.6122L37.0015 36.8824L36.4308 37.4533L38.1603 39.1828L38.731 38.6122ZM37.001 36.882C36.8434 36.7244 36.5878 36.7244 36.4304 36.882C36.2727 37.0397 36.2727 37.2953 36.4304 37.4529L37.001 36.882ZM38.1601 39.1823C38.3177 39.34 38.5733 39.34 38.7307 39.1823C38.8883 39.0247 38.8883 38.7691 38.7307 38.6117L38.1601 39.1823Z" fill="#F27E49"/>
<path fill-rule="evenodd" clip-rule="evenodd" d="M12.0969 11.9763L10.3674 10.2466L9.79673 10.8175L11.5262 12.547L12.0969 11.9763ZM10.367 10.2467C10.2093 10.0893 9.95374 10.0893 9.79634 10.2467C9.63869 10.4043 9.63869 10.66 9.79634 10.8176L10.367 10.2467ZM11.5267 12.5465C11.6844 12.7041 11.9399 12.7041 12.0974 12.5465C12.255 12.3889 12.255 12.1333 12.0974 11.9758L11.5267 12.5465Z" fill="#F27E49"/>
<path fill-rule="evenodd" clip-rule="evenodd" d="M10.6277 39.4558L12.3574 37.7263L11.7865 37.1556L10.057 38.8851L10.6277 39.4558ZM12.3571 37.7259C12.5148 37.5682 12.5148 37.3128 12.3571 37.1552C12.1995 36.9976 11.9439 36.9976 11.7863 37.1552L12.3571 37.7259ZM10.0566 38.8842C9.89894 39.0418 9.89894 39.2974 10.0566 39.4548C10.2142 39.6125 10.4696 39.6125 10.6272 39.4548L10.0566 38.8842Z" fill="#F27E49"/>
<path fill-rule="evenodd" clip-rule="evenodd" d="M6.53755 24.5316H4.09512V25.3389H6.53755V24.5316ZM4.09576 24.5316C3.87305 24.5316 3.69226 24.7124 3.69226 24.9354C3.69226 25.1581 3.87305 25.3389 4.09576 25.3389V24.5316ZM6.53701 25.3388C6.75997 25.3388 6.94052 25.158 6.94052 24.9353C6.94052 24.7124 6.75997 24.5316 6.53701 24.5316V25.3388Z" fill="#F27E49"/>
<path fill-rule="evenodd" clip-rule="evenodd" d="M44.3268 24.5306H41.8739V25.3378H44.3268V24.5306ZM41.8746 24.5306C41.6519 24.5306 41.4711 24.7114 41.4711 24.9343C41.4711 25.157 41.6519 25.3378 41.8746 25.3378V24.5306ZM44.3275 25.3378C44.5504 25.3378 44.731 25.157 44.731 24.9343C44.731 24.7114 44.5504 24.5306 44.3275 24.5306V25.3378Z" fill="#F27E49"/>
</svg>
